<mxfile host="app.diagrams.net" modified="2023-05-05T08:29:01.430Z" agent="Mozilla/5.0 (Windows NT 10.0; Win64; x64; rv:109.0) Gecko/20100101 Firefox/111.0" etag="ycJO0tFoy7SRE7kPCru5" version="21.2.9" type="device">
  <diagram name="Page-1" id="13e1069c-82ec-6db2-03f1-153e76fe0fe0">
    <mxGraphModel dx="1434" dy="746" grid="1" gridSize="10" guides="1" tooltips="1" connect="1" arrows="1" fold="1" page="1" pageScale="1" pageWidth="1100" pageHeight="850" background="none" math="0" shadow="0">
      <root>
        <mxCell id="0" />
        <mxCell id="1" parent="0" />
        <mxCell id="7baba1c4bc27f4b0-3" value=":Tour" style="shape=umlLifeline;perimeter=lifelinePerimeter;whiteSpace=wrap;html=1;container=1;collapsible=0;recursiveResize=0;outlineConnect=0;rounded=1;shadow=0;comic=0;labelBackgroundColor=none;strokeWidth=1;fontFamily=Verdana;fontSize=12;align=center;" parent="1" vertex="1">
          <mxGeometry x="400" y="80" width="100" height="1500" as="geometry" />
        </mxCell>
        <mxCell id="dj44LJOCPVhBjcXv33t8-38" value="" style="html=1;points=[];perimeter=orthogonalPerimeter;outlineConnect=0;targetShapes=umlLifeline;portConstraint=eastwest;newEdgeStyle={&quot;edgeStyle&quot;:&quot;elbowEdgeStyle&quot;,&quot;elbow&quot;:&quot;vertical&quot;,&quot;curved&quot;:0,&quot;rounded&quot;:0};" parent="7baba1c4bc27f4b0-3" vertex="1">
          <mxGeometry x="46" y="400" width="10" height="30" as="geometry" />
        </mxCell>
        <mxCell id="gjY2P6KVHGugal5kEeXi-45" value="" style="html=1;points=[];perimeter=orthogonalPerimeter;outlineConnect=0;targetShapes=umlLifeline;portConstraint=eastwest;newEdgeStyle={&quot;edgeStyle&quot;:&quot;elbowEdgeStyle&quot;,&quot;elbow&quot;:&quot;vertical&quot;,&quot;curved&quot;:0,&quot;rounded&quot;:0};" parent="7baba1c4bc27f4b0-3" vertex="1">
          <mxGeometry x="46" y="1440" width="10" height="30" as="geometry" />
        </mxCell>
        <mxCell id="7baba1c4bc27f4b0-2" value=":InvLinkScreen" style="shape=umlLifeline;perimeter=lifelinePerimeter;whiteSpace=wrap;html=1;container=1;collapsible=0;recursiveResize=0;outlineConnect=0;rounded=1;shadow=0;comic=0;labelBackgroundColor=none;strokeWidth=1;fontFamily=Verdana;fontSize=12;align=center;" parent="1" vertex="1">
          <mxGeometry x="240" y="80" width="100" height="1500" as="geometry" />
        </mxCell>
        <mxCell id="dj44LJOCPVhBjcXv33t8-22" value="" style="html=1;points=[];perimeter=orthogonalPerimeter;outlineConnect=0;targetShapes=umlLifeline;portConstraint=eastwest;newEdgeStyle={&quot;edgeStyle&quot;:&quot;elbowEdgeStyle&quot;,&quot;elbow&quot;:&quot;vertical&quot;,&quot;curved&quot;:0,&quot;rounded&quot;:0};" parent="7baba1c4bc27f4b0-2" vertex="1">
          <mxGeometry x="45" y="130" width="10" height="330" as="geometry" />
        </mxCell>
        <mxCell id="dj44LJOCPVhBjcXv33t8-31" value="checkLink()" style="html=1;align=left;spacingLeft=2;endArrow=block;rounded=0;edgeStyle=orthogonalEdgeStyle;curved=0;rounded=0;strokeColor=#FF0000;strokeWidth=2;" parent="7baba1c4bc27f4b0-2" target="dj44LJOCPVhBjcXv33t8-22" edge="1">
          <mxGeometry relative="1" as="geometry">
            <mxPoint x="55" y="290" as="sourcePoint" />
            <Array as="points">
              <mxPoint x="85" y="290" />
              <mxPoint x="85" y="320" />
            </Array>
            <mxPoint x="60" y="320" as="targetPoint" />
          </mxGeometry>
        </mxCell>
        <mxCell id="dj44LJOCPVhBjcXv33t8-37" value="loadTour()" style="html=1;verticalAlign=bottom;endArrow=block;edgeStyle=elbowEdgeStyle;elbow=vertical;curved=0;rounded=0;" parent="7baba1c4bc27f4b0-2" target="7baba1c4bc27f4b0-3" edge="1">
          <mxGeometry width="80" relative="1" as="geometry">
            <mxPoint x="55" y="400" as="sourcePoint" />
            <mxPoint x="135" y="400" as="targetPoint" />
          </mxGeometry>
        </mxCell>
        <mxCell id="dj44LJOCPVhBjcXv33t8-48" value="showTourInfo()" style="html=1;verticalAlign=bottom;startArrow=oval;endArrow=block;startSize=8;edgeStyle=elbowEdgeStyle;elbow=vertical;curved=0;rounded=0;" parent="7baba1c4bc27f4b0-2" target="7baba1c4bc27f4b0-4" edge="1">
          <mxGeometry x="0.0095" relative="1" as="geometry">
            <mxPoint x="50" y="460" as="sourcePoint" />
            <mxPoint as="offset" />
          </mxGeometry>
        </mxCell>
        <mxCell id="7baba1c4bc27f4b0-4" value=":TourDetScreen" style="shape=umlLifeline;perimeter=lifelinePerimeter;whiteSpace=wrap;html=1;container=1;collapsible=0;recursiveResize=0;outlineConnect=0;rounded=1;shadow=0;comic=0;labelBackgroundColor=none;strokeWidth=1;fontFamily=Verdana;fontSize=12;align=center;" parent="1" vertex="1">
          <mxGeometry x="540" y="80" width="100" height="1490" as="geometry" />
        </mxCell>
        <mxCell id="dj44LJOCPVhBjcXv33t8-47" value="" style="html=1;points=[];perimeter=orthogonalPerimeter;outlineConnect=0;targetShapes=umlLifeline;portConstraint=eastwest;newEdgeStyle={&quot;edgeStyle&quot;:&quot;elbowEdgeStyle&quot;,&quot;elbow&quot;:&quot;vertical&quot;,&quot;curved&quot;:0,&quot;rounded&quot;:0};" parent="7baba1c4bc27f4b0-4" vertex="1">
          <mxGeometry x="45" y="460" width="10" height="90" as="geometry" />
        </mxCell>
        <mxCell id="7baba1c4bc27f4b0-5" value=":DateTime" style="shape=umlLifeline;perimeter=lifelinePerimeter;whiteSpace=wrap;html=1;container=1;collapsible=0;recursiveResize=0;outlineConnect=0;rounded=1;shadow=0;comic=0;labelBackgroundColor=none;strokeWidth=1;fontFamily=Verdana;fontSize=12;align=center;" parent="1" vertex="1">
          <mxGeometry x="680" y="80" width="100" height="1500" as="geometry" />
        </mxCell>
        <mxCell id="dj44LJOCPVhBjcXv33t8-50" value="" style="html=1;points=[];perimeter=orthogonalPerimeter;outlineConnect=0;targetShapes=umlLifeline;portConstraint=eastwest;newEdgeStyle={&quot;edgeStyle&quot;:&quot;elbowEdgeStyle&quot;,&quot;elbow&quot;:&quot;vertical&quot;,&quot;curved&quot;:0,&quot;rounded&quot;:0};" parent="7baba1c4bc27f4b0-5" vertex="1">
          <mxGeometry x="45" y="510" width="10" height="70" as="geometry" />
        </mxCell>
        <mxCell id="7baba1c4bc27f4b0-6" value=":AvailScreen" style="shape=umlLifeline;perimeter=lifelinePerimeter;whiteSpace=wrap;html=1;container=1;collapsible=0;recursiveResize=0;outlineConnect=0;rounded=1;shadow=0;comic=0;labelBackgroundColor=none;strokeWidth=1;fontFamily=Verdana;fontSize=12;align=center;" parent="1" vertex="1">
          <mxGeometry x="820" y="80" width="100" height="1500" as="geometry" />
        </mxCell>
        <mxCell id="gjY2P6KVHGugal5kEeXi-13" value="" style="html=1;points=[];perimeter=orthogonalPerimeter;outlineConnect=0;targetShapes=umlLifeline;portConstraint=eastwest;newEdgeStyle={&quot;edgeStyle&quot;:&quot;elbowEdgeStyle&quot;,&quot;elbow&quot;:&quot;vertical&quot;,&quot;curved&quot;:0,&quot;rounded&quot;:0};" parent="7baba1c4bc27f4b0-6" vertex="1">
          <mxGeometry x="45" y="550" width="10" height="370" as="geometry" />
        </mxCell>
        <mxCell id="gjY2P6KVHGugal5kEeXi-16" value="checkPersonAvail()" style="html=1;align=left;spacingLeft=2;endArrow=block;rounded=0;edgeStyle=orthogonalEdgeStyle;curved=0;rounded=0;" parent="7baba1c4bc27f4b0-6" target="gjY2P6KVHGugal5kEeXi-13" edge="1">
          <mxGeometry relative="1" as="geometry">
            <mxPoint x="55" y="650" as="sourcePoint" />
            <Array as="points">
              <mxPoint x="90" y="650" />
              <mxPoint x="90" y="670" />
            </Array>
            <mxPoint x="60" y="680" as="targetPoint" />
          </mxGeometry>
        </mxCell>
        <mxCell id="gjY2P6KVHGugal5kEeXi-17" value="checkDiscount()" style="html=1;align=left;spacingLeft=2;endArrow=block;rounded=0;edgeStyle=orthogonalEdgeStyle;curved=0;rounded=0;" parent="7baba1c4bc27f4b0-6" edge="1">
          <mxGeometry relative="1" as="geometry">
            <mxPoint x="55" y="740" as="sourcePoint" />
            <Array as="points">
              <mxPoint x="85" y="740" />
              <mxPoint x="85" y="770" />
            </Array>
            <mxPoint x="55" y="770" as="targetPoint" />
          </mxGeometry>
        </mxCell>
        <mxCell id="7baba1c4bc27f4b0-8" value=":ToursScreen" style="shape=umlLifeline;perimeter=lifelinePerimeter;whiteSpace=wrap;html=1;container=1;collapsible=0;recursiveResize=0;outlineConnect=0;rounded=1;shadow=0;comic=0;labelBackgroundColor=none;strokeWidth=1;fontFamily=Verdana;fontSize=12;align=center;" parent="1" vertex="1">
          <mxGeometry x="100" y="80" width="100" height="1500" as="geometry" />
        </mxCell>
        <mxCell id="dj44LJOCPVhBjcXv33t8-18" value="" style="html=1;points=[];perimeter=orthogonalPerimeter;outlineConnect=0;targetShapes=umlLifeline;portConstraint=eastwest;newEdgeStyle={&quot;edgeStyle&quot;:&quot;elbowEdgeStyle&quot;,&quot;elbow&quot;:&quot;vertical&quot;,&quot;curved&quot;:0,&quot;rounded&quot;:0};" parent="7baba1c4bc27f4b0-8" vertex="1">
          <mxGeometry x="45" y="80" width="10" height="50" as="geometry" />
        </mxCell>
        <mxCell id="dj44LJOCPVhBjcXv33t8-19" value="selectTour()" style="html=1;verticalAlign=bottom;startArrow=oval;endArrow=block;startSize=8;edgeStyle=elbowEdgeStyle;elbow=vertical;curved=0;rounded=0;" parent="7baba1c4bc27f4b0-8" target="dj44LJOCPVhBjcXv33t8-18" edge="1">
          <mxGeometry x="0.0095" relative="1" as="geometry">
            <mxPoint x="-60" y="80" as="sourcePoint" />
            <mxPoint as="offset" />
          </mxGeometry>
        </mxCell>
        <mxCell id="dj44LJOCPVhBjcXv33t8-23" value="getInviteLink()" style="html=1;verticalAlign=bottom;startArrow=oval;endArrow=block;startSize=8;edgeStyle=elbowEdgeStyle;elbow=vertical;curved=0;rounded=0;" parent="7baba1c4bc27f4b0-8" target="dj44LJOCPVhBjcXv33t8-22" edge="1">
          <mxGeometry x="0.0095" relative="1" as="geometry">
            <mxPoint x="50" y="130" as="sourcePoint" />
            <mxPoint as="offset" />
          </mxGeometry>
        </mxCell>
        <mxCell id="dj44LJOCPVhBjcXv33t8-29" value="giveInviteLink()" style="html=1;verticalAlign=bottom;endArrow=block;edgeStyle=elbowEdgeStyle;elbow=vertical;curved=0;rounded=0;strokeColor=#ff0000;strokeWidth=2;" parent="7baba1c4bc27f4b0-8" source="dj44LJOCPVhBjcXv33t8-24" edge="1">
          <mxGeometry width="80" relative="1" as="geometry">
            <mxPoint x="55" y="220" as="sourcePoint" />
            <mxPoint x="190" y="260" as="targetPoint" />
            <Array as="points">
              <mxPoint x="-10" y="260" />
            </Array>
          </mxGeometry>
        </mxCell>
        <mxCell id="dj44LJOCPVhBjcXv33t8-1" value="" style="shape=umlLifeline;perimeter=lifelinePerimeter;whiteSpace=wrap;html=1;container=1;dropTarget=0;collapsible=0;recursiveResize=0;outlineConnect=0;portConstraint=eastwest;newEdgeStyle={&quot;edgeStyle&quot;:&quot;elbowEdgeStyle&quot;,&quot;elbow&quot;:&quot;vertical&quot;,&quot;curved&quot;:0,&quot;rounded&quot;:0};participant=umlActor;" parent="1" vertex="1">
          <mxGeometry x="30" y="80" width="20" height="1500" as="geometry" />
        </mxCell>
        <mxCell id="dj44LJOCPVhBjcXv33t8-24" value="" style="html=1;points=[];perimeter=orthogonalPerimeter;outlineConnect=0;targetShapes=umlLifeline;portConstraint=eastwest;newEdgeStyle={&quot;edgeStyle&quot;:&quot;elbowEdgeStyle&quot;,&quot;elbow&quot;:&quot;vertical&quot;,&quot;curved&quot;:0,&quot;rounded&quot;:0};" parent="dj44LJOCPVhBjcXv33t8-1" vertex="1">
          <mxGeometry x="5" y="80" width="10" height="1130" as="geometry" />
        </mxCell>
        <mxCell id="dj44LJOCPVhBjcXv33t8-10" value=":PaymentScreen" style="shape=umlLifeline;perimeter=lifelinePerimeter;whiteSpace=wrap;html=1;container=1;collapsible=0;recursiveResize=0;outlineConnect=0;rounded=1;shadow=0;comic=0;labelBackgroundColor=none;strokeWidth=1;fontFamily=Verdana;fontSize=12;align=center;" parent="1" vertex="1">
          <mxGeometry x="1100" y="80" width="100" height="1500" as="geometry" />
        </mxCell>
        <mxCell id="gjY2P6KVHGugal5kEeXi-28" value="Alternative" style="shape=umlFrame;whiteSpace=wrap;html=1;pointerEvents=0;strokeWidth=2;" parent="dj44LJOCPVhBjcXv33t8-10" vertex="1">
          <mxGeometry x="-300" y="780" width="310" height="150" as="geometry" />
        </mxCell>
        <mxCell id="gjY2P6KVHGugal5kEeXi-29" value="" style="endArrow=none;dashed=1;html=1;rounded=0;strokeColor=#ff8000;strokeWidth=3;" parent="dj44LJOCPVhBjcXv33t8-10" edge="1">
          <mxGeometry width="50" height="50" relative="1" as="geometry">
            <mxPoint x="-300" y="830" as="sourcePoint" />
            <mxPoint x="10" y="830" as="targetPoint" />
            <Array as="points" />
          </mxGeometry>
        </mxCell>
        <mxCell id="gjY2P6KVHGugal5kEeXi-30" value="" style="html=1;points=[];perimeter=orthogonalPerimeter;outlineConnect=0;targetShapes=umlLifeline;portConstraint=eastwest;newEdgeStyle={&quot;edgeStyle&quot;:&quot;elbowEdgeStyle&quot;,&quot;elbow&quot;:&quot;vertical&quot;,&quot;curved&quot;:0,&quot;rounded&quot;:0};" parent="dj44LJOCPVhBjcXv33t8-10" vertex="1">
          <mxGeometry x="45" y="810" width="10" height="680" as="geometry" />
        </mxCell>
        <mxCell id="gjY2P6KVHGugal5kEeXi-32" value="checkPaymentInfo()" style="html=1;align=left;spacingLeft=2;endArrow=block;rounded=0;edgeStyle=orthogonalEdgeStyle;curved=0;rounded=0;" parent="dj44LJOCPVhBjcXv33t8-10" edge="1">
          <mxGeometry relative="1" as="geometry">
            <mxPoint x="55" y="970" as="sourcePoint" />
            <Array as="points">
              <mxPoint x="85" y="970" />
              <mxPoint x="85" y="1000" />
            </Array>
            <mxPoint x="55" y="1000" as="targetPoint" />
          </mxGeometry>
        </mxCell>
        <mxCell id="gjY2P6KVHGugal5kEeXi-34" value="createPayment()" style="html=1;verticalAlign=bottom;endArrow=block;edgeStyle=elbowEdgeStyle;elbow=vertical;curved=0;rounded=0;" parent="dj44LJOCPVhBjcXv33t8-10" source="gjY2P6KVHGugal5kEeXi-30" edge="1">
          <mxGeometry width="80" relative="1" as="geometry">
            <mxPoint x="60" y="1160" as="sourcePoint" />
            <mxPoint x="160" y="1160" as="targetPoint" />
          </mxGeometry>
        </mxCell>
        <mxCell id="7baba1c4bc27f4b0-7" value=":Discount" style="shape=umlLifeline;perimeter=lifelinePerimeter;whiteSpace=wrap;html=1;container=1;collapsible=0;recursiveResize=0;outlineConnect=0;rounded=1;shadow=0;comic=0;labelBackgroundColor=none;strokeWidth=1;fontFamily=Verdana;fontSize=12;align=center;" parent="dj44LJOCPVhBjcXv33t8-10" vertex="1">
          <mxGeometry x="-100" y="840" width="100" height="660" as="geometry" />
        </mxCell>
        <mxCell id="gjY2P6KVHGugal5kEeXi-35" value="" style="html=1;points=[];perimeter=orthogonalPerimeter;outlineConnect=0;targetShapes=umlLifeline;portConstraint=eastwest;newEdgeStyle={&quot;edgeStyle&quot;:&quot;elbowEdgeStyle&quot;,&quot;elbow&quot;:&quot;vertical&quot;,&quot;curved&quot;:0,&quot;rounded&quot;:0};" parent="7baba1c4bc27f4b0-7" vertex="1">
          <mxGeometry x="45" y="50" width="10" height="10" as="geometry" />
        </mxCell>
        <mxCell id="gjY2P6KVHGugal5kEeXi-38" value="" style="html=1;align=left;spacingLeft=2;endArrow=block;rounded=0;edgeStyle=orthogonalEdgeStyle;curved=0;rounded=0;" parent="dj44LJOCPVhBjcXv33t8-10" edge="1">
          <mxGeometry relative="1" as="geometry">
            <mxPoint x="55" y="1210" as="sourcePoint" />
            <Array as="points">
              <mxPoint x="85" y="1210" />
              <mxPoint x="85" y="1240" />
            </Array>
            <mxPoint x="55" y="1240" as="targetPoint" />
          </mxGeometry>
        </mxCell>
        <mxCell id="gjY2P6KVHGugal5kEeXi-39" value="exectuePayment()" style="edgeLabel;html=1;align=center;verticalAlign=middle;resizable=0;points=[];" parent="gjY2P6KVHGugal5kEeXi-38" vertex="1" connectable="0">
          <mxGeometry x="-0.2667" relative="1" as="geometry">
            <mxPoint x="45" y="7" as="offset" />
          </mxGeometry>
        </mxCell>
        <mxCell id="gjY2P6KVHGugal5kEeXi-40" value="sendReceipt()" style="html=1;align=left;spacingLeft=2;endArrow=block;rounded=0;edgeStyle=orthogonalEdgeStyle;curved=0;rounded=0;" parent="dj44LJOCPVhBjcXv33t8-10" edge="1">
          <mxGeometry relative="1" as="geometry">
            <mxPoint x="55" y="1260" as="sourcePoint" />
            <Array as="points">
              <mxPoint x="85" y="1260" />
              <mxPoint x="85" y="1290" />
            </Array>
            <mxPoint x="55" y="1290" as="targetPoint" />
          </mxGeometry>
        </mxCell>
        <mxCell id="gjY2P6KVHGugal5kEeXi-41" value="sendCertificate()" style="html=1;align=left;spacingLeft=2;endArrow=block;rounded=0;edgeStyle=orthogonalEdgeStyle;curved=0;rounded=0;" parent="dj44LJOCPVhBjcXv33t8-10" edge="1">
          <mxGeometry relative="1" as="geometry">
            <mxPoint x="55" y="1300" as="sourcePoint" />
            <Array as="points">
              <mxPoint x="85" y="1300" />
              <mxPoint x="85" y="1330" />
            </Array>
            <mxPoint x="55" y="1330" as="targetPoint" />
          </mxGeometry>
        </mxCell>
        <mxCell id="gjY2P6KVHGugal5kEeXi-43" value="updateStats()" style="html=1;align=left;spacingLeft=2;endArrow=block;rounded=0;edgeStyle=orthogonalEdgeStyle;curved=0;rounded=0;" parent="dj44LJOCPVhBjcXv33t8-10" edge="1">
          <mxGeometry relative="1" as="geometry">
            <mxPoint x="55" y="1380" as="sourcePoint" />
            <Array as="points">
              <mxPoint x="85" y="1380" />
              <mxPoint x="85" y="1410" />
            </Array>
            <mxPoint x="55" y="1410" as="targetPoint" />
          </mxGeometry>
        </mxCell>
        <mxCell id="dj44LJOCPVhBjcXv33t8-11" value=":Payment" style="shape=umlLifeline;perimeter=lifelinePerimeter;whiteSpace=wrap;html=1;container=1;collapsible=0;recursiveResize=0;outlineConnect=0;rounded=1;shadow=0;comic=0;labelBackgroundColor=none;strokeWidth=1;fontFamily=Verdana;fontSize=12;align=center;" parent="1" vertex="1">
          <mxGeometry x="1260" y="1220" width="100" height="360" as="geometry" />
        </mxCell>
        <mxCell id="dj44LJOCPVhBjcXv33t8-12" value=":Participation" style="shape=umlLifeline;perimeter=lifelinePerimeter;whiteSpace=wrap;html=1;container=1;collapsible=0;recursiveResize=0;outlineConnect=0;rounded=1;shadow=0;comic=0;labelBackgroundColor=none;strokeWidth=1;fontFamily=Verdana;fontSize=12;align=center;" parent="1" vertex="1">
          <mxGeometry x="1370" y="1420" width="100" height="160" as="geometry" />
        </mxCell>
        <mxCell id="dj44LJOCPVhBjcXv33t8-16" value=":VTourScreen" style="shape=umlLifeline;perimeter=lifelinePerimeter;whiteSpace=wrap;html=1;container=1;collapsible=0;recursiveResize=0;outlineConnect=0;rounded=1;shadow=0;comic=0;labelBackgroundColor=none;strokeWidth=1;fontFamily=Verdana;fontSize=12;align=center;" parent="1" vertex="1">
          <mxGeometry x="1520" y="80" width="100" height="1500" as="geometry" />
        </mxCell>
        <mxCell id="gjY2P6KVHGugal5kEeXi-49" value="" style="html=1;points=[];perimeter=orthogonalPerimeter;outlineConnect=0;targetShapes=umlLifeline;portConstraint=eastwest;newEdgeStyle={&quot;edgeStyle&quot;:&quot;elbowEdgeStyle&quot;,&quot;elbow&quot;:&quot;vertical&quot;,&quot;curved&quot;:0,&quot;rounded&quot;:0};" parent="dj44LJOCPVhBjcXv33t8-16" vertex="1">
          <mxGeometry x="45" y="1480" width="10" height="20" as="geometry" />
        </mxCell>
        <mxCell id="dj44LJOCPVhBjcXv33t8-26" value="noInviteLink()" style="html=1;verticalAlign=bottom;endArrow=block;edgeStyle=elbowEdgeStyle;elbow=vertical;curved=0;rounded=0;" parent="1" source="dj44LJOCPVhBjcXv33t8-24" target="dj44LJOCPVhBjcXv33t8-22" edge="1">
          <mxGeometry width="80" relative="1" as="geometry">
            <mxPoint x="70" y="260" as="sourcePoint" />
            <mxPoint x="150" y="260" as="targetPoint" />
            <Array as="points">
              <mxPoint x="90" y="280" />
            </Array>
          </mxGeometry>
        </mxCell>
        <mxCell id="dj44LJOCPVhBjcXv33t8-35" value="Alternative" style="shape=umlFrame;whiteSpace=wrap;html=1;pointerEvents=0;strokeWidth=2;" parent="1" vertex="1">
          <mxGeometry x="13" y="240" width="397" height="220" as="geometry" />
        </mxCell>
        <mxCell id="dj44LJOCPVhBjcXv33t8-36" value="" style="endArrow=none;dashed=1;html=1;rounded=0;exitX=0;exitY=0.3;exitDx=0;exitDy=0;exitPerimeter=0;entryX=1.004;entryY=0.286;entryDx=0;entryDy=0;entryPerimeter=0;strokeColor=#ff8000;strokeWidth=3;" parent="1" source="dj44LJOCPVhBjcXv33t8-35" target="dj44LJOCPVhBjcXv33t8-35" edge="1">
          <mxGeometry width="50" height="50" relative="1" as="geometry">
            <mxPoint x="50" y="330" as="sourcePoint" />
            <mxPoint x="100" y="280" as="targetPoint" />
          </mxGeometry>
        </mxCell>
        <mxCell id="dj44LJOCPVhBjcXv33t8-44" value="updateScore()" style="html=1;verticalAlign=bottom;endArrow=none;edgeStyle=elbowEdgeStyle;elbow=vertical;curved=0;rounded=0;startArrow=block;startFill=1;endFill=0;strokeWidth=2;strokeColor=#ff0000;" parent="1" target="dj44LJOCPVhBjcXv33t8-22" edge="1">
          <mxGeometry width="80" relative="1" as="geometry">
            <mxPoint x="45" y="415" as="sourcePoint" />
            <mxPoint x="255" y="425" as="targetPoint" />
          </mxGeometry>
        </mxCell>
        <mxCell id="dj44LJOCPVhBjcXv33t8-46" value="retTourInfo()" style="html=1;verticalAlign=bottom;endArrow=open;dashed=1;endSize=8;edgeStyle=elbowEdgeStyle;elbow=vertical;curved=0;rounded=0;" parent="1" source="dj44LJOCPVhBjcXv33t8-38" target="dj44LJOCPVhBjcXv33t8-22" edge="1">
          <mxGeometry relative="1" as="geometry">
            <mxPoint x="400" y="510" as="sourcePoint" />
            <mxPoint x="300" y="520" as="targetPoint" />
            <Array as="points">
              <mxPoint x="420" y="510" />
            </Array>
          </mxGeometry>
        </mxCell>
        <mxCell id="dj44LJOCPVhBjcXv33t8-49" value="confirmParticipation()" style="html=1;verticalAlign=bottom;endArrow=block;edgeStyle=elbowEdgeStyle;elbow=vertical;curved=0;rounded=0;" parent="1" source="dj44LJOCPVhBjcXv33t8-24" target="dj44LJOCPVhBjcXv33t8-47" edge="1">
          <mxGeometry width="80" relative="1" as="geometry">
            <mxPoint x="500" y="580" as="sourcePoint" />
            <mxPoint x="580" y="580" as="targetPoint" />
            <Array as="points">
              <mxPoint x="490" y="570" />
              <mxPoint x="410" y="590" />
            </Array>
          </mxGeometry>
        </mxCell>
        <mxCell id="gjY2P6KVHGugal5kEeXi-1" value="noAvailableDates()" style="html=1;verticalAlign=bottom;endArrow=block;edgeStyle=elbowEdgeStyle;elbow=vertical;curved=0;rounded=0;strokeColor=#ef2929;strokeWidth=2;" parent="1" source="dj44LJOCPVhBjcXv33t8-50" target="dj44LJOCPVhBjcXv33t8-24" edge="1">
          <mxGeometry width="80" relative="1" as="geometry">
            <mxPoint x="630" y="640" as="sourcePoint" />
            <mxPoint x="710" y="640" as="targetPoint" />
            <Array as="points">
              <mxPoint x="670" y="660" />
              <mxPoint x="580" y="650" />
            </Array>
          </mxGeometry>
        </mxCell>
        <mxCell id="gjY2P6KVHGugal5kEeXi-5" value="Alternative" style="shape=umlFrame;whiteSpace=wrap;html=1;pointerEvents=0;strokeWidth=2;" parent="1" vertex="1">
          <mxGeometry x="13" y="550" width="747" height="130" as="geometry" />
        </mxCell>
        <mxCell id="gjY2P6KVHGugal5kEeXi-6" value="" style="endArrow=none;dashed=1;html=1;rounded=0;entryX=1.004;entryY=0.669;entryDx=0;entryDy=0;entryPerimeter=0;strokeColor=#ff8000;strokeWidth=3;" parent="1" target="gjY2P6KVHGugal5kEeXi-5" edge="1">
          <mxGeometry width="50" height="50" relative="1" as="geometry">
            <mxPoint x="20" y="640" as="sourcePoint" />
            <mxPoint x="412" y="628.5" as="targetPoint" />
            <Array as="points">
              <mxPoint x="470" y="640" />
            </Array>
          </mxGeometry>
        </mxCell>
        <mxCell id="gjY2P6KVHGugal5kEeXi-9" value="retDates()" style="html=1;verticalAlign=bottom;endArrow=open;dashed=1;endSize=8;edgeStyle=elbowEdgeStyle;elbow=vertical;curved=0;rounded=0;" parent="1" source="dj44LJOCPVhBjcXv33t8-50" target="dj44LJOCPVhBjcXv33t8-47" edge="1">
          <mxGeometry relative="1" as="geometry">
            <mxPoint x="700" y="620" as="sourcePoint" />
            <mxPoint x="620" y="620" as="targetPoint" />
            <Array as="points">
              <mxPoint x="690" y="610" />
              <mxPoint x="690" y="620" />
            </Array>
          </mxGeometry>
        </mxCell>
        <mxCell id="gjY2P6KVHGugal5kEeXi-10" value="loadDates()" style="html=1;verticalAlign=bottom;endArrow=block;edgeStyle=elbowEdgeStyle;elbow=vertical;curved=0;rounded=0;" parent="1" source="dj44LJOCPVhBjcXv33t8-47" target="dj44LJOCPVhBjcXv33t8-50" edge="1">
          <mxGeometry width="80" relative="1" as="geometry">
            <mxPoint x="620" y="590" as="sourcePoint" />
            <mxPoint x="700" y="590" as="targetPoint" />
            <Array as="points">
              <mxPoint x="630" y="590" />
            </Array>
          </mxGeometry>
        </mxCell>
        <mxCell id="gjY2P6KVHGugal5kEeXi-12" value="showDates()" style="html=1;verticalAlign=bottom;endArrow=block;edgeStyle=elbowEdgeStyle;elbow=vertical;curved=0;rounded=0;" parent="1" source="dj44LJOCPVhBjcXv33t8-47" target="gjY2P6KVHGugal5kEeXi-13" edge="1">
          <mxGeometry x="0.5926" width="80" relative="1" as="geometry">
            <mxPoint x="780" y="630" as="sourcePoint" />
            <mxPoint x="860" y="630" as="targetPoint" />
            <Array as="points">
              <mxPoint x="830" y="630" />
            </Array>
            <mxPoint as="offset" />
          </mxGeometry>
        </mxCell>
        <mxCell id="gjY2P6KVHGugal5kEeXi-14" value="chooseDate()" style="html=1;verticalAlign=bottom;endArrow=block;edgeStyle=elbowEdgeStyle;elbow=vertical;curved=0;rounded=0;" parent="1" source="dj44LJOCPVhBjcXv33t8-24" target="gjY2P6KVHGugal5kEeXi-13" edge="1">
          <mxGeometry width="80" relative="1" as="geometry">
            <mxPoint x="60" y="710" as="sourcePoint" />
            <mxPoint x="140" y="710" as="targetPoint" />
            <Array as="points">
              <mxPoint x="820" y="710" />
            </Array>
          </mxGeometry>
        </mxCell>
        <mxCell id="gjY2P6KVHGugal5kEeXi-18" value="noPersonAvail()" style="html=1;verticalAlign=bottom;endArrow=block;edgeStyle=elbowEdgeStyle;elbow=vertical;curved=0;rounded=0;strokeColor=#ef2929;strokeWidth=2;" parent="1" source="gjY2P6KVHGugal5kEeXi-13" target="dj44LJOCPVhBjcXv33t8-24" edge="1">
          <mxGeometry width="80" relative="1" as="geometry">
            <mxPoint x="510" y="740" as="sourcePoint" />
            <mxPoint x="59" y="780" as="targetPoint" />
            <Array as="points">
              <mxPoint x="690" y="780" />
            </Array>
            <mxPoint as="offset" />
          </mxGeometry>
        </mxCell>
        <mxCell id="gjY2P6KVHGugal5kEeXi-19" value="Alternative" style="shape=umlFrame;whiteSpace=wrap;html=1;pointerEvents=0;strokeWidth=2;" parent="1" vertex="1">
          <mxGeometry x="13" y="720" width="997" height="90" as="geometry" />
        </mxCell>
        <mxCell id="gjY2P6KVHGugal5kEeXi-20" value="" style="endArrow=none;dashed=1;html=1;rounded=0;strokeColor=#ff8000;strokeWidth=3;" parent="1" edge="1">
          <mxGeometry width="50" height="50" relative="1" as="geometry">
            <mxPoint x="13" y="763" as="sourcePoint" />
            <mxPoint x="1010" y="763" as="targetPoint" />
            <Array as="points">
              <mxPoint x="463" y="763" />
            </Array>
          </mxGeometry>
        </mxCell>
        <mxCell id="gjY2P6KVHGugal5kEeXi-21" value="displayPaymentScreen()" style="html=1;verticalAlign=bottom;endArrow=block;edgeStyle=elbowEdgeStyle;elbow=vertical;curved=0;rounded=0;" parent="1" source="gjY2P6KVHGugal5kEeXi-13" target="gjY2P6KVHGugal5kEeXi-30" edge="1">
          <mxGeometry width="80" relative="1" as="geometry">
            <mxPoint x="920" y="890" as="sourcePoint" />
            <mxPoint x="1140" y="890" as="targetPoint" />
            <Array as="points">
              <mxPoint x="1040" y="890" />
              <mxPoint x="960" y="880" />
            </Array>
          </mxGeometry>
        </mxCell>
        <mxCell id="gjY2P6KVHGugal5kEeXi-26" value="applyDiscount()" style="html=1;verticalAlign=bottom;endArrow=open;endSize=8;edgeStyle=elbowEdgeStyle;elbow=vertical;curved=0;rounded=0;strokeColor=#ef2929;strokeWidth=2;" parent="1" source="7baba1c4bc27f4b0-7" edge="1">
          <mxGeometry relative="1" as="geometry">
            <mxPoint x="1005" y="980" as="sourcePoint" />
            <mxPoint x="880" y="980" as="targetPoint" />
            <Array as="points">
              <mxPoint x="990" y="980" />
              <mxPoint x="970" y="970" />
            </Array>
          </mxGeometry>
        </mxCell>
        <mxCell id="gjY2P6KVHGugal5kEeXi-27" value="displayPaymentScreen()" style="html=1;verticalAlign=bottom;endArrow=block;edgeStyle=elbowEdgeStyle;elbow=vertical;curved=0;rounded=0;strokeWidth=2;strokeColor=#ef2929;" parent="1" target="gjY2P6KVHGugal5kEeXi-30" edge="1">
          <mxGeometry width="80" relative="1" as="geometry">
            <mxPoint x="870" y="1000" as="sourcePoint" />
            <mxPoint x="1130" y="1000" as="targetPoint" />
            <Array as="points">
              <mxPoint x="965" y="1000" />
            </Array>
          </mxGeometry>
        </mxCell>
        <mxCell id="gjY2P6KVHGugal5kEeXi-31" value="setPaymentInfo()" style="html=1;verticalAlign=bottom;endArrow=block;edgeStyle=elbowEdgeStyle;elbow=vertical;curved=0;rounded=0;" parent="1" source="dj44LJOCPVhBjcXv33t8-24" target="gjY2P6KVHGugal5kEeXi-30" edge="1">
          <mxGeometry width="80" relative="1" as="geometry">
            <mxPoint x="50" y="1010" as="sourcePoint" />
            <mxPoint x="130" y="1030" as="targetPoint" />
            <Array as="points">
              <mxPoint x="88" y="1030" />
            </Array>
          </mxGeometry>
        </mxCell>
        <mxCell id="gjY2P6KVHGugal5kEeXi-24" value="createDiscount()" style="html=1;verticalAlign=bottom;endArrow=block;edgeStyle=elbowEdgeStyle;elbow=vertical;curved=0;rounded=0;strokeColor=#ef2929;strokeWidth=2;" parent="1" source="gjY2P6KVHGugal5kEeXi-13" edge="1">
          <mxGeometry width="80" relative="1" as="geometry">
            <mxPoint x="880" y="900" as="sourcePoint" />
            <mxPoint x="1000" y="940" as="targetPoint" />
            <Array as="points">
              <mxPoint x="960" y="940" />
              <mxPoint x="990" y="930" />
              <mxPoint x="920" y="920" />
              <mxPoint x="990" y="900" />
            </Array>
          </mxGeometry>
        </mxCell>
        <mxCell id="gjY2P6KVHGugal5kEeXi-42" value="createParticipation()" style="html=1;verticalAlign=bottom;endArrow=block;edgeStyle=elbowEdgeStyle;elbow=vertical;curved=0;rounded=0;" parent="1" source="gjY2P6KVHGugal5kEeXi-30" edge="1">
          <mxGeometry width="80" relative="1" as="geometry">
            <mxPoint x="1190" y="1440" as="sourcePoint" />
            <mxPoint x="1370" y="1440" as="targetPoint" />
            <Array as="points">
              <mxPoint x="1310" y="1440" />
              <mxPoint x="1330" y="1450" />
              <mxPoint x="1360" y="1440" />
            </Array>
          </mxGeometry>
        </mxCell>
        <mxCell id="gjY2P6KVHGugal5kEeXi-44" value="isVitualTour()" style="html=1;verticalAlign=bottom;endArrow=block;edgeStyle=elbowEdgeStyle;elbow=vertical;curved=0;rounded=0;" parent="1" source="gjY2P6KVHGugal5kEeXi-30" target="gjY2P6KVHGugal5kEeXi-45" edge="1">
          <mxGeometry x="0.0015" width="80" relative="1" as="geometry">
            <mxPoint x="930" y="1520" as="sourcePoint" />
            <mxPoint x="510" y="1520" as="targetPoint" />
            <Array as="points">
              <mxPoint x="530" y="1520" />
            </Array>
            <mxPoint as="offset" />
          </mxGeometry>
        </mxCell>
        <mxCell id="gjY2P6KVHGugal5kEeXi-47" value="retIsVTour()" style="html=1;verticalAlign=bottom;endArrow=open;dashed=1;endSize=8;edgeStyle=elbowEdgeStyle;elbow=vertical;curved=0;rounded=0;" parent="1" source="7baba1c4bc27f4b0-3" target="gjY2P6KVHGugal5kEeXi-30" edge="1">
          <mxGeometry relative="1" as="geometry">
            <mxPoint x="1010" y="1540" as="sourcePoint" />
            <mxPoint x="1140" y="1550" as="targetPoint" />
            <Array as="points">
              <mxPoint x="680" y="1550" />
              <mxPoint x="540" y="1560" />
            </Array>
          </mxGeometry>
        </mxCell>
        <mxCell id="gjY2P6KVHGugal5kEeXi-48" value="displayVTourScreen()" style="html=1;verticalAlign=bottom;endArrow=block;edgeStyle=elbowEdgeStyle;elbow=vertical;curved=0;rounded=0;" parent="1" source="gjY2P6KVHGugal5kEeXi-30" target="gjY2P6KVHGugal5kEeXi-49" edge="1">
          <mxGeometry width="80" relative="1" as="geometry">
            <mxPoint x="1160" y="1560" as="sourcePoint" />
            <mxPoint x="1510" y="1570" as="targetPoint" />
            <Array as="points">
              <mxPoint x="1440" y="1560" />
            </Array>
          </mxGeometry>
        </mxCell>
      </root>
    </mxGraphModel>
  </diagram>
</mxfile>
